<?xml version="1.0" encoding="windows-1252" standalone="no"?>
<svg xmlns="http://www.w3.org/2000/svg" xmlns:xlink="http://www.w3.org/1999/xlink" contentStyleType="text/css" height="1217px" preserveAspectRatio="none" style="width:1059px;height:1217px;background:#FFFFFF;" version="1.1" viewBox="0 0 1059 1217" width="1059px" zoomAndPan="magnify"><defs/><g><!--class InstExec--><g id="elem_InstExec"><rect codeLine="2" fill="#FFFFFF" height="255.8594" id="InstExec" rx="2.5" ry="2.5" style="stroke:#000000;stroke-width:1.0;" width="159" x="744.5" y="670.79"/><ellipse cx="791.25" cy="684.79" fill="#FFFFFF" rx="9" ry="9" style="stroke:#000000;stroke-width:1.0;"/><path d="M794.2188,690.4306 Q793.6406,690.7275 793,690.8681 Q792.3594,691.0244 791.6563,691.0244 Q789.1563,691.0244 787.8281,689.3837 Q786.5156,687.7275 786.5156,684.6025 Q786.5156,681.4775 787.8281,679.8212 Q789.1563,678.165 791.6563,678.165 Q792.3594,678.165 793,678.3212 Q793.6563,678.4775 794.2188,678.7744 L794.2188,681.4931 Q793.5938,680.915 793,680.6494 Q792.4063,680.3681 791.7813,680.3681 Q790.4375,680.3681 789.75,681.4462 Q789.0625,682.5087 789.0625,684.6025 Q789.0625,686.6962 789.75,687.7744 Q790.4375,688.8369 791.7813,688.8369 Q792.4063,688.8369 793,688.5712 Q793.5938,688.29 794.2188,687.7119 L794.2188,690.4306 Z " fill="#000000"/><text fill="#000000" font-family="Verdana" font-size="14" lengthAdjust="spacing" textLength="58" x="808.75" y="689.6367">InstExec</text><line style="stroke:#000000;stroke-width:1.0;" x1="745.5" x2="902.5" y1="698.79" y2="698.79"/><line style="stroke:#000000;stroke-width:1.0;" x1="745.5" x2="902.5" y1="706.79" y2="706.79"/><rect fill="#FFFFFF" height="6" style="stroke:#000000;stroke-width:1.0;" width="6" x="752.5" y="717.4384"/><text fill="#000000" font-family="Verdana" font-size="14" lengthAdjust="spacing" text-decoration="underline" textLength="129" x="762.5" y="723.7851">checkVariableList()</text><ellipse cx="755.5" cy="736.7353" fill="#FFFFFF" rx="3" ry="3" style="stroke:#000000;stroke-width:1.0;"/><text fill="#000000" font-family="Verdana" font-size="14" lengthAdjust="spacing" text-decoration="underline" textLength="46" x="762.5" y="740.082">Read()</text><ellipse cx="755.5" cy="753.0322" fill="#FFFFFF" rx="3" ry="3" style="stroke:#000000;stroke-width:1.0;"/><text fill="#000000" font-family="Verdana" font-size="14" lengthAdjust="spacing" text-decoration="underline" textLength="54" x="762.5" y="756.3789">Defvar()</text><ellipse cx="755.5" cy="769.3291" fill="#FFFFFF" rx="3" ry="3" style="stroke:#000000;stroke-width:1.0;"/><text fill="#000000" font-family="Verdana" font-size="14" lengthAdjust="spacing" text-decoration="underline" textLength="57" x="762.5" y="772.6757">Return()</text><ellipse cx="755.5" cy="785.6259" fill="#FFFFFF" rx="3" ry="3" style="stroke:#000000;stroke-width:1.0;"/><text fill="#000000" font-family="Verdana" font-size="14" lengthAdjust="spacing" text-decoration="underline" textLength="44" x="762.5" y="788.9726">Jump()</text><ellipse cx="755.5" cy="801.9228" fill="#FFFFFF" rx="3" ry="3" style="stroke:#000000;stroke-width:1.0;"/><text fill="#000000" font-family="Verdana" font-size="14" lengthAdjust="spacing" text-decoration="underline" textLength="135" x="762.5" y="805.2695">ArithmeticOrString()</text><ellipse cx="755.5" cy="818.2197" fill="#FFFFFF" rx="3" ry="3" style="stroke:#000000;stroke-width:1.0;"/><text fill="#000000" font-family="Verdana" font-size="14" lengthAdjust="spacing" text-decoration="underline" textLength="45" x="762.5" y="821.5664">Write()</text><ellipse cx="755.5" cy="834.5166" fill="#FFFFFF" rx="3" ry="3" style="stroke:#000000;stroke-width:1.0;"/><text fill="#000000" font-family="Verdana" font-size="14" lengthAdjust="spacing" text-decoration="underline" textLength="34" x="762.5" y="837.8632">Exit()</text><ellipse cx="755.5" cy="850.8134" fill="#FFFFFF" rx="3" ry="3" style="stroke:#000000;stroke-width:1.0;"/><text fill="#000000" font-family="Verdana" font-size="14" lengthAdjust="spacing" text-decoration="underline" textLength="102" x="762.5" y="854.1601">VariableStack()</text><ellipse cx="755.5" cy="867.1103" fill="#FFFFFF" rx="3" ry="3" style="stroke:#000000;stroke-width:1.0;"/><text fill="#000000" font-family="Verdana" font-size="14" lengthAdjust="spacing" text-decoration="underline" textLength="50" x="762.5" y="870.457">Break()</text><ellipse cx="755.5" cy="883.4072" fill="#FFFFFF" rx="3" ry="3" style="stroke:#000000;stroke-width:1.0;"/><text fill="#000000" font-family="Verdana" font-size="14" lengthAdjust="spacing" text-decoration="underline" textLength="47" x="762.5" y="886.7539">Move()</text><ellipse cx="755.5" cy="899.7041" fill="#FFFFFF" rx="3" ry="3" style="stroke:#000000;stroke-width:1.0;"/><text fill="#000000" font-family="Verdana" font-size="14" lengthAdjust="spacing" text-decoration="underline" textLength="44" x="762.5" y="903.0507">Type()</text><ellipse cx="755.5" cy="916.0009" fill="#FFFFFF" rx="3" ry="3" style="stroke:#000000;stroke-width:1.0;"/><text fill="#000000" font-family="Verdana" font-size="14" lengthAdjust="spacing" text-decoration="underline" textLength="46" x="762.5" y="919.3476">Label()</text></g><!--class Instruction--><g id="elem_Instruction"><rect codeLine="18" fill="#FFFFFF" height="206.9688" id="Instruction" rx="2.5" ry="2.5" style="stroke:#000000;stroke-width:1.0;" width="136" x="51" y="695.24"/><ellipse cx="79.75" cy="709.24" fill="#FFFFFF" rx="9" ry="9" style="stroke:#000000;stroke-width:1.0;"/><path d="M82.7188,714.8806 Q82.1406,715.1775 81.5,715.3181 Q80.8594,715.4744 80.1563,715.4744 Q77.6563,715.4744 76.3281,713.8337 Q75.0156,712.1775 75.0156,709.0525 Q75.0156,705.9275 76.3281,704.2712 Q77.6563,702.615 80.1563,702.615 Q80.8594,702.615 81.5,702.7712 Q82.1563,702.9275 82.7188,703.2244 L82.7188,705.9431 Q82.0938,705.365 81.5,705.0994 Q80.9063,704.8181 80.2813,704.8181 Q78.9375,704.8181 78.25,705.8962 Q77.5625,706.9587 77.5625,709.0525 Q77.5625,711.1462 78.25,712.2244 Q78.9375,713.2869 80.2813,713.2869 Q80.9063,713.2869 81.5,713.0212 Q82.0938,712.74 82.7188,712.1619 L82.7188,714.8806 Z " fill="#000000"/><text fill="#000000" font-family="Verdana" font-size="14" lengthAdjust="spacing" textLength="73" x="95.25" y="714.0867">Instruction</text><line style="stroke:#000000;stroke-width:1.0;" x1="52" x2="186" y1="723.24" y2="723.24"/><polygon fill="none" points="62,731.8884,66,735.8884,62,739.8884,58,735.8884" style="stroke:#000000;stroke-width:1.0;"/><text fill="#000000" font-family="Verdana" font-size="14" lengthAdjust="spacing" textLength="53" x="69" y="740.2351">opcode</text><polygon fill="none" points="62,748.1853,66,752.1853,62,756.1853,58,752.1853" style="stroke:#000000;stroke-width:1.0;"/><text fill="#000000" font-family="Verdana" font-size="14" lengthAdjust="spacing" textLength="37" x="69" y="756.532">order</text><polygon fill="none" points="62,764.4822,66,768.4822,62,772.4822,58,768.4822" style="stroke:#000000;stroke-width:1.0;"/><text fill="#000000" font-family="Verdana" font-size="14" lengthAdjust="spacing" textLength="30" x="69" y="772.8289">args</text><line style="stroke:#000000;stroke-width:1.0;" x1="52" x2="186" y1="780.1306" y2="780.1306"/><ellipse cx="62" cy="793.7791" fill="#FFFFFF" rx="3" ry="3" style="stroke:#000000;stroke-width:1.0;"/><text fill="#000000" font-family="Verdana" font-size="14" lengthAdjust="spacing" textLength="90" x="69" y="797.1257">__construct()</text><ellipse cx="62" cy="810.0759" fill="#FFFFFF" rx="3" ry="3" style="stroke:#000000;stroke-width:1.0;"/><text fill="#000000" font-family="Verdana" font-size="14" lengthAdjust="spacing" textLength="72" x="69" y="813.4226">getOrder()</text><ellipse cx="62" cy="826.3728" fill="#FFFFFF" rx="3" ry="3" style="stroke:#000000;stroke-width:1.0;"/><text fill="#000000" font-family="Verdana" font-size="14" lengthAdjust="spacing" textLength="88" x="69" y="829.7195">getOpcode()</text><ellipse cx="62" cy="842.6697" fill="#FFFFFF" rx="3" ry="3" style="stroke:#000000;stroke-width:1.0;"/><text fill="#000000" font-family="Verdana" font-size="14" lengthAdjust="spacing" textLength="64" x="69" y="846.0164">getArgs()</text><ellipse cx="62" cy="858.9666" fill="#FFFFFF" rx="3" ry="3" style="stroke:#000000;stroke-width:1.0;"/><text fill="#000000" font-family="Verdana" font-size="14" lengthAdjust="spacing" textLength="56" x="69" y="862.3132">getArg()</text><ellipse cx="62" cy="875.2634" fill="#FFFFFF" rx="3" ry="3" style="stroke:#000000;stroke-width:1.0;"/><text fill="#000000" font-family="Verdana" font-size="14" lengthAdjust="spacing" textLength="112" x="69" y="878.6101">getArgsLength()</text><ellipse cx="62" cy="891.5603" fill="#FFFFFF" rx="3" ry="3" style="stroke:#000000;stroke-width:1.0;"/><text fill="#000000" font-family="Verdana" font-size="14" lengthAdjust="spacing" textLength="64" x="69" y="894.907">toString()</text></g><!--class Interpreter--><g id="elem_Interpreter"><rect codeLine="31" fill="#FFFFFF" height="581.7969" id="Interpreter" rx="2.5" ry="2.5" style="stroke:#000000;stroke-width:1.0;" width="215" x="443.5" y="12"/><ellipse cx="510.75" cy="26" fill="#FFFFFF" rx="9" ry="9" style="stroke:#000000;stroke-width:1.0;"/><path d="M513.7188,31.6406 Q513.1406,31.9375 512.5,32.0781 Q511.8594,32.2344 511.1563,32.2344 Q508.6563,32.2344 507.3281,30.5938 Q506.0156,28.9375 506.0156,25.8125 Q506.0156,22.6875 507.3281,21.0313 Q508.6563,19.375 511.1563,19.375 Q511.8594,19.375 512.5,19.5313 Q513.1563,19.6875 513.7188,19.9844 L513.7188,22.7031 Q513.0938,22.125 512.5,21.8594 Q511.9063,21.5781 511.2813,21.5781 Q509.9375,21.5781 509.25,22.6563 Q508.5625,23.7188 508.5625,25.8125 Q508.5625,27.9063 509.25,28.9844 Q509.9375,30.0469 511.2813,30.0469 Q511.9063,30.0469 512.5,29.7813 Q513.0938,29.5 513.7188,28.9219 L513.7188,31.6406 Z " fill="#000000"/><text fill="#000000" font-family="Verdana" font-size="14" lengthAdjust="spacing" textLength="73" x="528.25" y="30.8467">Interpreter</text><line style="stroke:#000000;stroke-width:1.0;" x1="444.5" x2="657.5" y1="40" y2="40"/><ellipse cx="454.5" cy="53.6484" fill="none" rx="3" ry="3" style="stroke:#000000;stroke-width:1.0;"/><text fill="#000000" font-family="Verdana" font-size="14" lengthAdjust="spacing" textLength="81" x="461.5" y="56.9951">globalLiteral</text><ellipse cx="454.5" cy="69.9453" fill="none" rx="3" ry="3" style="stroke:#000000;stroke-width:1.0;"/><text fill="#000000" font-family="Verdana" font-size="14" lengthAdjust="spacing" textLength="150" x="461.5" y="73.292">numberOfInstructions</text><rect fill="none" height="6" style="stroke:#000000;stroke-width:1.0;" width="6" x="451.5" y="83.2422"/><text fill="#000000" font-family="Verdana" font-size="14" lengthAdjust="spacing" textLength="81" x="461.5" y="89.5889">instructions</text><rect fill="none" height="6" style="stroke:#000000;stroke-width:1.0;" width="6" x="451.5" y="99.5391"/><text fill="#000000" font-family="Verdana" font-size="14" lengthAdjust="spacing" textLength="79" x="461.5" y="105.8857">tempFrame</text><rect fill="none" height="6" style="stroke:#000000;stroke-width:1.0;" width="6" x="451.5" y="115.8359"/><text fill="#000000" font-family="Verdana" font-size="14" lengthAdjust="spacing" textLength="84" x="461.5" y="122.1826">globalFrame</text><rect fill="none" height="6" style="stroke:#000000;stroke-width:1.0;" width="6" x="451.5" y="132.1328"/><text fill="#000000" font-family="Verdana" font-size="14" lengthAdjust="spacing" textLength="77" x="461.5" y="138.4795">frameStack</text><rect fill="none" height="6" style="stroke:#000000;stroke-width:1.0;" width="6" x="451.5" y="148.4297"/><text fill="#000000" font-family="Verdana" font-size="14" lengthAdjust="spacing" textLength="51" x="461.5" y="154.7764">labelArr</text><rect fill="none" height="6" style="stroke:#000000;stroke-width:1.0;" width="6" x="451.5" y="164.7266"/><text fill="#000000" font-family="Verdana" font-size="14" lengthAdjust="spacing" textLength="111" x="461.5" y="171.0732">instructionStack</text><rect fill="none" height="6" style="stroke:#000000;stroke-width:1.0;" width="6" x="451.5" y="181.0234"/><text fill="#000000" font-family="Verdana" font-size="14" lengthAdjust="spacing" textLength="90" x="461.5" y="187.3701">variableStack</text><rect fill="none" height="6" style="stroke:#000000;stroke-width:1.0;" width="6" x="451.5" y="197.3203"/><text fill="#000000" font-family="Verdana" font-size="14" lengthAdjust="spacing" textLength="49" x="461.5" y="203.667">instCnt</text><line style="stroke:#000000;stroke-width:1.0;" x1="444.5" x2="657.5" y1="210.9688" y2="210.9688"/><rect fill="#FFFFFF" height="6" style="stroke:#000000;stroke-width:1.0;" width="6" x="451.5" y="221.6172"/><text fill="#000000" font-family="Verdana" font-size="14" lengthAdjust="spacing" textLength="98" x="461.5" y="227.9639">findInFrames()</text><rect fill="#FFFFFF" height="6" style="stroke:#000000;stroke-width:1.0;" width="6" x="451.5" y="237.9141"/><text fill="#000000" font-family="Verdana" font-size="14" lengthAdjust="spacing" textLength="111" x="461.5" y="244.2607">initFrameStack()</text><ellipse cx="454.5" cy="257.2109" fill="#FFFFFF" rx="3" ry="3" style="stroke:#000000;stroke-width:1.0;"/><text fill="#000000" font-family="Verdana" font-size="14" lengthAdjust="spacing" textLength="66" x="461.5" y="260.5576">execute()</text><ellipse cx="454.5" cy="273.5078" fill="#FFFFFF" rx="3" ry="3" style="stroke:#000000;stroke-width:1.0;"/><text fill="#000000" font-family="Verdana" font-size="14" lengthAdjust="spacing" textLength="147" x="461.5" y="276.8545">executeInstructions()</text><ellipse cx="454.5" cy="289.8047" fill="#FFFFFF" rx="3" ry="3" style="stroke:#000000;stroke-width:1.0;"/><text fill="#000000" font-family="Verdana" font-size="14" lengthAdjust="spacing" textLength="96" x="461.5" y="293.1514">errorHandler()</text><ellipse cx="454.5" cy="306.1016" fill="#FFFFFF" rx="3" ry="3" style="stroke:#000000;stroke-width:1.0;"/><text fill="#000000" font-family="Verdana" font-size="14" lengthAdjust="spacing" textLength="122" x="461.5" y="309.4482">printInstructions()</text><ellipse cx="454.5" cy="322.3984" fill="#FFFFFF" rx="3" ry="3" style="stroke:#000000;stroke-width:1.0;"/><text fill="#000000" font-family="Verdana" font-size="14" lengthAdjust="spacing" textLength="122" x="461.5" y="325.7451">printFrameStack()</text><ellipse cx="454.5" cy="338.6953" fill="#FFFFFF" rx="3" ry="3" style="stroke:#000000;stroke-width:1.0;"/><text fill="#000000" font-family="Verdana" font-size="14" lengthAdjust="spacing" textLength="41" x="461.5" y="342.042">read()</text><ellipse cx="454.5" cy="354.9922" fill="#FFFFFF" rx="3" ry="3" style="stroke:#000000;stroke-width:1.0;"/><text fill="#000000" font-family="Verdana" font-size="14" lengthAdjust="spacing" textLength="41" x="461.5" y="358.3389">print()</text><ellipse cx="454.5" cy="371.2891" fill="#FFFFFF" rx="3" ry="3" style="stroke:#000000;stroke-width:1.0;"/><text fill="#000000" font-family="Verdana" font-size="14" lengthAdjust="spacing" textLength="60" x="461.5" y="374.6357">printErr()</text><ellipse cx="454.5" cy="387.5859" fill="#FFFFFF" rx="3" ry="3" style="stroke:#000000;stroke-width:1.0;"/><text fill="#000000" font-family="Verdana" font-size="14" lengthAdjust="spacing" textLength="53" x="461.5" y="390.9326">println()</text><ellipse cx="454.5" cy="403.8828" fill="#FFFFFF" rx="3" ry="3" style="stroke:#000000;stroke-width:1.0;"/><text fill="#000000" font-family="Verdana" font-size="14" lengthAdjust="spacing" textLength="90" x="461.5" y="407.2295">addVariable()</text><ellipse cx="454.5" cy="420.1797" fill="#FFFFFF" rx="3" ry="3" style="stroke:#000000;stroke-width:1.0;"/><text fill="#000000" font-family="Verdana" font-size="14" lengthAdjust="spacing" textLength="87" x="461.5" y="423.5264">getVariable()</text><ellipse cx="454.5" cy="436.4766" fill="#FFFFFF" rx="3" ry="3" style="stroke:#000000;stroke-width:1.0;"/><text fill="#000000" font-family="Verdana" font-size="14" lengthAdjust="spacing" textLength="72" x="461.5" y="439.8232">addLabel()</text><ellipse cx="454.5" cy="452.7734" fill="#FFFFFF" rx="3" ry="3" style="stroke:#000000;stroke-width:1.0;"/><text fill="#000000" font-family="Verdana" font-size="14" lengthAdjust="spacing" textLength="69" x="461.5" y="456.1201">getLabel()</text><ellipse cx="454.5" cy="469.0703" fill="#FFFFFF" rx="3" ry="3" style="stroke:#000000;stroke-width:1.0;"/><text fill="#000000" font-family="Verdana" font-size="14" lengthAdjust="spacing" textLength="191" x="461.5" y="472.417">changeInstructionCounter()</text><ellipse cx="454.5" cy="485.3672" fill="#FFFFFF" rx="3" ry="3" style="stroke:#000000;stroke-width:1.0;"/><text fill="#000000" font-family="Verdana" font-size="14" lengthAdjust="spacing" textLength="97" x="461.5" y="488.7139">createFrame()</text><ellipse cx="454.5" cy="501.6641" fill="#FFFFFF" rx="3" ry="3" style="stroke:#000000;stroke-width:1.0;"/><text fill="#000000" font-family="Verdana" font-size="14" lengthAdjust="spacing" textLength="88" x="461.5" y="505.0107">pushFrame()</text><ellipse cx="454.5" cy="517.9609" fill="#FFFFFF" rx="3" ry="3" style="stroke:#000000;stroke-width:1.0;"/><text fill="#000000" font-family="Verdana" font-size="14" lengthAdjust="spacing" textLength="80" x="461.5" y="521.3076">popFrame()</text><ellipse cx="454.5" cy="534.2578" fill="#FFFFFF" rx="3" ry="3" style="stroke:#000000;stroke-width:1.0;"/><text fill="#000000" font-family="Verdana" font-size="14" lengthAdjust="spacing" textLength="174" x="461.5" y="537.6045">pushInstructionCounter()</text><ellipse cx="454.5" cy="550.5547" fill="#FFFFFF" rx="3" ry="3" style="stroke:#000000;stroke-width:1.0;"/><text fill="#000000" font-family="Verdana" font-size="14" lengthAdjust="spacing" textLength="166" x="461.5" y="553.9014">popInstructionCounter()</text><ellipse cx="454.5" cy="566.8516" fill="#FFFFFF" rx="3" ry="3" style="stroke:#000000;stroke-width:1.0;"/><text fill="#000000" font-family="Verdana" font-size="14" lengthAdjust="spacing" textLength="137" x="461.5" y="570.1982">pushVariableStack()</text><ellipse cx="454.5" cy="583.1484" fill="#FFFFFF" rx="3" ry="3" style="stroke:#000000;stroke-width:1.0;"/><text fill="#000000" font-family="Verdana" font-size="14" lengthAdjust="spacing" textLength="129" x="461.5" y="586.4951">popVariableStack()</text></g><!--class Helper--><g id="elem_Helper"><rect codeLine="67" fill="#FFFFFF" height="141.7813" id="Helper" rx="2.5" ry="2.5" style="stroke:#000000;stroke-width:1.0;" width="185" x="221.5" y="727.83"/><ellipse cx="287.75" cy="741.83" fill="#FFFFFF" rx="9" ry="9" style="stroke:#000000;stroke-width:1.0;"/><path d="M290.7188,747.4706 Q290.1406,747.7675 289.5,747.9081 Q288.8594,748.0644 288.1563,748.0644 Q285.6563,748.0644 284.3281,746.4237 Q283.0156,744.7675 283.0156,741.6425 Q283.0156,738.5175 284.3281,736.8612 Q285.6563,735.205 288.1563,735.205 Q288.8594,735.205 289.5,735.3612 Q290.1563,735.5175 290.7188,735.8144 L290.7188,738.5331 Q290.0938,737.955 289.5,737.6894 Q288.9063,737.4081 288.2813,737.4081 Q286.9375,737.4081 286.25,738.4862 Q285.5625,739.5487 285.5625,741.6425 Q285.5625,743.7362 286.25,744.8144 Q286.9375,745.8769 288.2813,745.8769 Q288.9063,745.8769 289.5,745.6112 Q290.0938,745.33 290.7188,744.7519 L290.7188,747.4706 Z " fill="#000000"/><text fill="#000000" font-family="Verdana" font-size="14" lengthAdjust="spacing" textLength="45" x="305.25" y="746.6767">Helper</text><line style="stroke:#000000;stroke-width:1.0;" x1="222.5" x2="405.5" y1="755.83" y2="755.83"/><line style="stroke:#000000;stroke-width:1.0;" x1="222.5" x2="405.5" y1="763.83" y2="763.83"/><ellipse cx="232.5" cy="777.4784" fill="#FFFFFF" rx="3" ry="3" style="stroke:#000000;stroke-width:1.0;"/><text fill="#000000" font-family="Verdana" font-size="14" lengthAdjust="spacing" text-decoration="underline" textLength="137" x="239.5" y="780.8251">checkNodeNames()</text><ellipse cx="232.5" cy="793.7753" fill="#FFFFFF" rx="3" ry="3" style="stroke:#000000;stroke-width:1.0;"/><text fill="#000000" font-family="Verdana" font-size="14" lengthAdjust="spacing" text-decoration="underline" textLength="161" x="239.5" y="797.122">convertToInstructions()</text><ellipse cx="232.5" cy="810.0722" fill="#FFFFFF" rx="3" ry="3" style="stroke:#000000;stroke-width:1.0;"/><text fill="#000000" font-family="Verdana" font-size="14" lengthAdjust="spacing" text-decoration="underline" textLength="140" x="239.5" y="813.4189">checkVariableType()</text><ellipse cx="232.5" cy="826.3691" fill="#FFFFFF" rx="3" ry="3" style="stroke:#000000;stroke-width:1.0;"/><text fill="#000000" font-family="Verdana" font-size="14" lengthAdjust="spacing" text-decoration="underline" textLength="87" x="239.5" y="829.7157">sortMyLists()</text><ellipse cx="232.5" cy="842.6659" fill="#FFFFFF" rx="3" ry="3" style="stroke:#000000;stroke-width:1.0;"/><text fill="#000000" font-family="Verdana" font-size="14" lengthAdjust="spacing" text-decoration="underline" textLength="110" x="239.5" y="846.0126">isValidUnicode()</text><ellipse cx="232.5" cy="858.9628" fill="#FFFFFF" rx="3" ry="3" style="stroke:#000000;stroke-width:1.0;"/><text fill="#000000" font-family="Verdana" font-size="14" lengthAdjust="spacing" text-decoration="underline" textLength="137" x="239.5" y="862.3095">convertToUnicode()</text></g><!--class Argument--><g id="elem_Argument"><rect codeLine="76" fill="#FFFFFF" height="206.9688" id="Argument" rx="2.5" ry="2.5" style="stroke:#000000;stroke-width:1.0;" width="210" x="14" y="1003.65"/><ellipse cx="81.25" cy="1017.65" fill="#FFFFFF" rx="9" ry="9" style="stroke:#000000;stroke-width:1.0;"/><path d="M84.2188,1023.2906 Q83.6406,1023.5875 83,1023.7281 Q82.3594,1023.8844 81.6563,1023.8844 Q79.1563,1023.8844 77.8281,1022.2437 Q76.5156,1020.5875 76.5156,1017.4625 Q76.5156,1014.3375 77.8281,1012.6812 Q79.1563,1011.025 81.6563,1011.025 Q82.3594,1011.025 83,1011.1812 Q83.6563,1011.3375 84.2188,1011.6344 L84.2188,1014.3531 Q83.5938,1013.775 83,1013.5094 Q82.4063,1013.2281 81.7813,1013.2281 Q80.4375,1013.2281 79.75,1014.3062 Q79.0625,1015.3687 79.0625,1017.4625 Q79.0625,1019.5562 79.75,1020.6344 Q80.4375,1021.6969 81.7813,1021.6969 Q82.4063,1021.6969 83,1021.4312 Q83.5938,1021.15 84.2188,1020.5719 L84.2188,1023.2906 Z " fill="#000000"/><text fill="#000000" font-family="Verdana" font-size="14" lengthAdjust="spacing" textLength="68" x="98.75" y="1022.4967">Argument</text><line style="stroke:#000000;stroke-width:1.0;" x1="15" x2="223" y1="1031.65" y2="1031.65"/><polygon fill="none" points="25,1040.2984,29,1044.2984,25,1048.2984,21,1044.2984" style="stroke:#000000;stroke-width:1.0;"/><text fill="#000000" font-family="Verdana" font-size="14" lengthAdjust="spacing" textLength="37" x="32" y="1048.6451">order</text><polygon fill="none" points="25,1056.5953,29,1060.5953,25,1064.5953,21,1060.5953" style="stroke:#000000;stroke-width:1.0;"/><text fill="#000000" font-family="Verdana" font-size="14" lengthAdjust="spacing" textLength="30" x="32" y="1064.942">type</text><polygon fill="none" points="25,1072.8922,29,1076.8922,25,1080.8922,21,1076.8922" style="stroke:#000000;stroke-width:1.0;"/><text fill="#000000" font-family="Verdana" font-size="14" lengthAdjust="spacing" textLength="36" x="32" y="1081.2389">value</text><line style="stroke:#000000;stroke-width:1.0;" x1="15" x2="223" y1="1088.5406" y2="1088.5406"/><ellipse cx="25" cy="1102.1891" fill="#FFFFFF" rx="3" ry="3" style="stroke:#000000;stroke-width:1.0;"/><text fill="#000000" font-family="Verdana" font-size="14" lengthAdjust="spacing" text-decoration="underline" textLength="186" x="32" y="1105.5357">breakIntoNameAndScope()</text><ellipse cx="25" cy="1118.4859" fill="#FFFFFF" rx="3" ry="3" style="stroke:#000000;stroke-width:1.0;"/><text fill="#000000" font-family="Verdana" font-size="14" lengthAdjust="spacing" text-decoration="underline" textLength="61" x="32" y="1121.8326">isLiteral()</text><ellipse cx="25" cy="1134.7828" fill="#FFFFFF" rx="3" ry="3" style="stroke:#000000;stroke-width:1.0;"/><text fill="#000000" font-family="Verdana" font-size="14" lengthAdjust="spacing" textLength="90" x="32" y="1138.1295">__construct()</text><ellipse cx="25" cy="1151.0797" fill="#FFFFFF" rx="3" ry="3" style="stroke:#000000;stroke-width:1.0;"/><text fill="#000000" font-family="Verdana" font-size="14" lengthAdjust="spacing" textLength="64" x="32" y="1154.4264">toString()</text><ellipse cx="25" cy="1167.3766" fill="#FFFFFF" rx="3" ry="3" style="stroke:#000000;stroke-width:1.0;"/><text fill="#000000" font-family="Verdana" font-size="14" lengthAdjust="spacing" textLength="72" x="32" y="1170.7232">getOrder()</text><ellipse cx="25" cy="1183.6734" fill="#FFFFFF" rx="3" ry="3" style="stroke:#000000;stroke-width:1.0;"/><text fill="#000000" font-family="Verdana" font-size="14" lengthAdjust="spacing" textLength="67" x="32" y="1187.0201">getType()</text><ellipse cx="25" cy="1199.9703" fill="#FFFFFF" rx="3" ry="3" style="stroke:#000000;stroke-width:1.0;"/><text fill="#000000" font-family="Verdana" font-size="14" lengthAdjust="spacing" textLength="71" x="32" y="1203.317">getValue()</text></g><!--class Label--><g id="elem_Label"><rect codeLine="89" fill="#FFFFFF" height="141.7813" id="Label" rx="2.5" ry="2.5" style="stroke:#000000;stroke-width:1.0;" width="167" x="542.5" y="727.83"/><ellipse cx="604.25" cy="741.83" fill="#FFFFFF" rx="9" ry="9" style="stroke:#000000;stroke-width:1.0;"/><path d="M607.2188,747.4706 Q606.6406,747.7675 606,747.9081 Q605.3594,748.0644 604.6563,748.0644 Q602.1563,748.0644 600.8281,746.4237 Q599.5156,744.7675 599.5156,741.6425 Q599.5156,738.5175 600.8281,736.8612 Q602.1563,735.205 604.6563,735.205 Q605.3594,735.205 606,735.3612 Q606.6563,735.5175 607.2188,735.8144 L607.2188,738.5331 Q606.5938,737.955 606,737.6894 Q605.4063,737.4081 604.7813,737.4081 Q603.4375,737.4081 602.75,738.4862 Q602.0625,739.5487 602.0625,741.6425 Q602.0625,743.7362 602.75,744.8144 Q603.4375,745.8769 604.7813,745.8769 Q605.4063,745.8769 606,745.6112 Q606.5938,745.33 607.2188,744.7519 L607.2188,747.4706 Z " fill="#000000"/><text fill="#000000" font-family="Verdana" font-size="14" lengthAdjust="spacing" textLength="36" x="621.75" y="746.6767">Label</text><line style="stroke:#000000;stroke-width:1.0;" x1="543.5" x2="708.5" y1="755.83" y2="755.83"/><rect fill="none" height="6" style="stroke:#000000;stroke-width:1.0;" width="6" x="550.5" y="766.4784"/><text fill="#000000" font-family="Verdana" font-size="14" lengthAdjust="spacing" textLength="39" x="560.5" y="772.8251">name</text><rect fill="none" height="6" style="stroke:#000000;stroke-width:1.0;" width="6" x="550.5" y="782.7753"/><text fill="#000000" font-family="Verdana" font-size="14" lengthAdjust="spacing" textLength="110" x="560.5" y="789.122">instructionIndex</text><line style="stroke:#000000;stroke-width:1.0;" x1="543.5" x2="708.5" y1="796.4237" y2="796.4237"/><ellipse cx="553.5" cy="810.0722" fill="#FFFFFF" rx="3" ry="3" style="stroke:#000000;stroke-width:1.0;"/><text fill="#000000" font-family="Verdana" font-size="14" lengthAdjust="spacing" textLength="90" x="560.5" y="813.4189">__construct()</text><ellipse cx="553.5" cy="826.3691" fill="#FFFFFF" rx="3" ry="3" style="stroke:#000000;stroke-width:1.0;"/><text fill="#000000" font-family="Verdana" font-size="14" lengthAdjust="spacing" textLength="73" x="560.5" y="829.7157">getName()</text><ellipse cx="553.5" cy="842.6659" fill="#FFFFFF" rx="3" ry="3" style="stroke:#000000;stroke-width:1.0;"/><text fill="#000000" font-family="Verdana" font-size="14" lengthAdjust="spacing" textLength="143" x="560.5" y="846.0126">getInstructionIndex()</text><ellipse cx="553.5" cy="858.9628" fill="#FFFFFF" rx="3" ry="3" style="stroke:#000000;stroke-width:1.0;"/><text fill="#000000" font-family="Verdana" font-size="14" lengthAdjust="spacing" textLength="64" x="560.5" y="862.3095">toString()</text></g><!--class Opcode--><g id="elem_Opcode"><rect codeLine="98" fill="#FFFFFF" height="92.8906" id="Opcode" rx="2.5" ry="2.5" style="stroke:#000000;stroke-width:1.0;" width="170" x="391" y="1060.69"/><ellipse cx="444.75" cy="1074.69" fill="#FFFFFF" rx="9" ry="9" style="stroke:#000000;stroke-width:1.0;"/><path d="M447.7188,1080.3306 Q447.1406,1080.6275 446.5,1080.7681 Q445.8594,1080.9244 445.1563,1080.9244 Q442.6563,1080.9244 441.3281,1079.2837 Q440.0156,1077.6275 440.0156,1074.5025 Q440.0156,1071.3775 441.3281,1069.7212 Q442.6563,1068.065 445.1563,1068.065 Q445.8594,1068.065 446.5,1068.2212 Q447.1563,1068.3775 447.7188,1068.6744 L447.7188,1071.3931 Q447.0938,1070.815 446.5,1070.5494 Q445.9063,1070.2681 445.2813,1070.2681 Q443.9375,1070.2681 443.25,1071.3462 Q442.5625,1072.4087 442.5625,1074.5025 Q442.5625,1076.5962 443.25,1077.6744 Q443.9375,1078.7369 445.2813,1078.7369 Q445.9063,1078.7369 446.5,1078.4712 Q447.0938,1078.19 447.7188,1077.6119 L447.7188,1080.3306 Z " fill="#000000"/><text fill="#000000" font-family="Verdana" font-size="14" lengthAdjust="spacing" textLength="55" x="462.25" y="1079.5367">Opcode</text><line style="stroke:#000000;stroke-width:1.0;" x1="392" x2="560" y1="1088.69" y2="1088.69"/><line style="stroke:#000000;stroke-width:1.0;" x1="392" x2="560" y1="1096.69" y2="1096.69"/><ellipse cx="402" cy="1110.3384" fill="#FFFFFF" rx="3" ry="3" style="stroke:#000000;stroke-width:1.0;"/><text fill="#000000" font-family="Verdana" font-size="14" lengthAdjust="spacing" text-decoration="underline" textLength="146" x="409" y="1113.6851">isArithmeticOrString()</text><ellipse cx="402" cy="1126.6353" fill="#FFFFFF" rx="3" ry="3" style="stroke:#000000;stroke-width:1.0;"/><text fill="#000000" font-family="Verdana" font-size="14" lengthAdjust="spacing" text-decoration="underline" textLength="55" x="409" y="1129.982">isJump()</text><ellipse cx="402" cy="1142.9322" fill="#FFFFFF" rx="3" ry="3" style="stroke:#000000;stroke-width:1.0;"/><text fill="#000000" font-family="Verdana" font-size="14" lengthAdjust="spacing" text-decoration="underline" textLength="76" x="409" y="1146.2789">isOpcode()</text></g><!--class Variable--><g id="elem_Variable"><rect codeLine="104" fill="#FFFFFF" height="223.2656" id="Variable" rx="2.5" ry="2.5" style="stroke:#000000;stroke-width:1.0;" width="114" x="938" y="687.09"/><ellipse cx="965.4" cy="701.09" fill="#FFFFFF" rx="9" ry="9" style="stroke:#000000;stroke-width:1.0;"/><path d="M968.3688,706.7306 Q967.7906,707.0275 967.15,707.1681 Q966.5094,707.3244 965.8063,707.3244 Q963.3063,707.3244 961.9781,705.6837 Q960.6656,704.0275 960.6656,700.9025 Q960.6656,697.7775 961.9781,696.1212 Q963.3063,694.465 965.8063,694.465 Q966.5094,694.465 967.15,694.6212 Q967.8063,694.7775 968.3688,695.0744 L968.3688,697.7931 Q967.7438,697.215 967.15,696.9494 Q966.5563,696.6681 965.9313,696.6681 Q964.5875,696.6681 963.9,697.7462 Q963.2125,698.8087 963.2125,700.9025 Q963.2125,702.9962 963.9,704.0744 Q964.5875,705.1369 965.9313,705.1369 Q966.5563,705.1369 967.15,704.8712 Q967.7438,704.59 968.3688,704.0119 L968.3688,706.7306 Z " fill="#000000"/><text fill="#000000" font-family="Verdana" font-size="14" lengthAdjust="spacing" textLength="54" x="980.6" y="705.9367">Variable</text><line style="stroke:#000000;stroke-width:1.0;" x1="939" x2="1051" y1="715.09" y2="715.09"/><polygon fill="none" points="949,723.7384,953,727.7384,949,731.7384,945,727.7384" style="stroke:#000000;stroke-width:1.0;"/><text fill="#000000" font-family="Verdana" font-size="14" lengthAdjust="spacing" textLength="52" x="956" y="732.0851">defined</text><polygon fill="none" points="949,740.0353,953,744.0353,949,748.0353,945,744.0353" style="stroke:#000000;stroke-width:1.0;"/><text fill="#000000" font-family="Verdana" font-size="14" lengthAdjust="spacing" textLength="39" x="956" y="748.382">name</text><polygon fill="none" points="949,756.3322,953,760.3322,949,764.3322,945,760.3322" style="stroke:#000000;stroke-width:1.0;"/><text fill="#000000" font-family="Verdana" font-size="14" lengthAdjust="spacing" textLength="30" x="956" y="764.6789">type</text><polygon fill="none" points="949,772.6291,953,776.6291,949,780.6291,945,776.6291" style="stroke:#000000;stroke-width:1.0;"/><text fill="#000000" font-family="Verdana" font-size="14" lengthAdjust="spacing" textLength="36" x="956" y="780.9757">value</text><line style="stroke:#000000;stroke-width:1.0;" x1="939" x2="1051" y1="788.2775" y2="788.2775"/><ellipse cx="949" cy="801.9259" fill="#FFFFFF" rx="3" ry="3" style="stroke:#000000;stroke-width:1.0;"/><text fill="#000000" font-family="Verdana" font-size="14" lengthAdjust="spacing" textLength="90" x="956" y="805.2726">__construct()</text><ellipse cx="949" cy="818.2228" fill="#FFFFFF" rx="3" ry="3" style="stroke:#000000;stroke-width:1.0;"/><text fill="#000000" font-family="Verdana" font-size="14" lengthAdjust="spacing" textLength="70" x="956" y="821.5695">setValue()</text><ellipse cx="949" cy="834.5197" fill="#FFFFFF" rx="3" ry="3" style="stroke:#000000;stroke-width:1.0;"/><text fill="#000000" font-family="Verdana" font-size="14" lengthAdjust="spacing" textLength="71" x="956" y="837.8664">getValue()</text><ellipse cx="949" cy="850.8166" fill="#FFFFFF" rx="3" ry="3" style="stroke:#000000;stroke-width:1.0;"/><text fill="#000000" font-family="Verdana" font-size="14" lengthAdjust="spacing" textLength="75" x="956" y="854.1632">isDefined()</text><ellipse cx="949" cy="867.1134" fill="#FFFFFF" rx="3" ry="3" style="stroke:#000000;stroke-width:1.0;"/><text fill="#000000" font-family="Verdana" font-size="14" lengthAdjust="spacing" textLength="67" x="956" y="870.4601">getType()</text><ellipse cx="949" cy="883.4103" fill="#FFFFFF" rx="3" ry="3" style="stroke:#000000;stroke-width:1.0;"/><text fill="#000000" font-family="Verdana" font-size="14" lengthAdjust="spacing" textLength="73" x="956" y="886.757">getName()</text><ellipse cx="949" cy="899.7072" fill="#FFFFFF" rx="3" ry="3" style="stroke:#000000;stroke-width:1.0;"/><text fill="#000000" font-family="Verdana" font-size="14" lengthAdjust="spacing" textLength="64" x="956" y="903.0539">toString()</text></g><!--link Interpreter to Helper--><g id="link_Interpreter_Helper"><path codeLine="118" d="M443.08,528.77 C408.56,600.69 375.436,669.7107 350.346,721.9907 " fill="none" id="Interpreter-to-Helper" style="stroke:#000000;stroke-width:1.0;"/><polygon fill="#000000" points="347.75,727.4,355.2502,721.0167,349.9133,722.8922,348.0378,717.5553,347.75,727.4" style="stroke:#000000;stroke-width:1.0;"/><text fill="#000000" font-family="Verdana" font-size="13" lengthAdjust="spacing" textLength="30" x="399" y="636.8569">uses</text></g><!--link Interpreter to InstExec--><g id="link_Interpreter_InstExec"><path codeLine="119" d="M658.9,499.07 C690.79,556.76 721.9673,613.1489 750.8273,665.3589 " fill="none" id="Interpreter-to-InstExec" style="stroke:#000000;stroke-width:1.0;"/><polygon fill="#000000" points="753.73,670.61,752.8768,660.7982,751.3111,666.234,745.8752,664.6684,753.73,670.61" style="stroke:#000000;stroke-width:1.0;"/><text fill="#000000" font-family="Verdana" font-size="13" lengthAdjust="spacing" textLength="30" x="737" y="636.8569">uses</text></g><!--link Interpreter to Opcode--><g id="link_Interpreter_Opcode"><path codeLine="120" d="M501.93,593.89 C498.51,619.84 495.46,645.76 493,670.79 C479.1,812.31 476.4825,974.7601 476.0525,1054.2601 " fill="none" id="Interpreter-to-Opcode" style="stroke:#000000;stroke-width:1.0;"/><polygon fill="#000000" points="476.02,1060.26,480.0686,1051.2818,476.047,1055.2601,472.0687,1051.2385,476.02,1060.26" style="stroke:#000000;stroke-width:1.0;"/><text fill="#000000" font-family="Verdana" font-size="13" lengthAdjust="spacing" textLength="30" x="494" y="803.2869">uses</text></g><!--link Helper to Opcode--><g id="link_Helper_Opcode"><path codeLine="121" d="M351.17,870.02 C382.09,928.5 422.3956,1004.7457 449.0156,1055.0957 " fill="none" id="Helper-to-Opcode" style="stroke:#000000;stroke-width:1.0;"/><polygon fill="#000000" points="451.82,1060.4,451.1496,1050.574,449.483,1055.9798,444.0772,1054.3131,451.82,1060.4" style="stroke:#000000;stroke-width:1.0;"/><text fill="#000000" font-family="Verdana" font-size="13" lengthAdjust="spacing" textLength="30" x="406" y="969.7169">uses</text></g><!--link InstExec to Opcode--><g id="link_InstExec_Opcode"><path codeLine="122" d="M744.08,908.93 C738.49,915.1 732.78,921.06 727,926.65 C673.61,978.37 609.4117,1023.5127 557.1817,1056.9827 " fill="none" id="InstExec-to-Opcode" style="stroke:#000000;stroke-width:1.0;"/><polygon fill="#000000" points="552.13,1060.22,561.8658,1058.7319,556.3398,1057.5223,557.5494,1051.9963,552.13,1060.22" style="stroke:#000000;stroke-width:1.0;"/><text fill="#000000" font-family="Verdana" font-size="13" lengthAdjust="spacing" textLength="30" x="691" y="969.7169">uses</text></g><!--link Interpreter to Variable--><g id="link_Interpreter_Variable"><path codeLine="124" d="M664.9298,402.289 C743.0698,472.789 842.37,569.21 921,670.79 C926.7,678.15 928.9475,681.0106 934.3175,689.0506 " fill="none" id="Interpreter-Variable" style="stroke:#000000;stroke-width:1.0;"/><line style="stroke:#000000;stroke-width:1.0;" x1="664.9298" x2="658.99" y1="402.289" y2="402.8698"/><line style="stroke:#000000;stroke-width:1.0;" x1="664.9298" x2="658.99" y1="402.289" y2="390.9902"/><line style="stroke:#000000;stroke-width:1.0;" x1="664.9298" x2="658.99" y1="402.289" y2="396.93"/><polygon fill="#000000" points="937.65,694.04,935.9775,684.3342,934.8729,689.8821,929.325,688.7775,937.65,694.04" style="stroke:#000000;stroke-width:1.0;"/><text fill="#000000" font-family="Verdana" font-size="13" lengthAdjust="spacing" textLength="54" x="895" y="636.8569">contains</text></g><!--link Interpreter to Instruction--><g id="link_Interpreter_Instruction"><path codeLine="125" d="M437.5239,414.0076 C366.3639,485.1876 278.54,577.44 204,670.79 C197.88,678.46 195.2801,681.7083 189.2701,689.9683 " fill="none" id="Interpreter-Instruction" style="stroke:#000000;stroke-width:1.0;"/><line style="stroke:#000000;stroke-width:1.0;" x1="437.5239" x2="443.18" y1="414.0076" y2="402.6939"/><line style="stroke:#000000;stroke-width:1.0;" x1="437.5239" x2="443.18" y1="414.0076" y2="414.0061"/><line style="stroke:#000000;stroke-width:1.0;" x1="437.5239" x2="443.18" y1="414.0076" y2="408.35"/><polygon fill="#000000" points="185.74,694.82,194.2696,689.8959,188.6817,690.777,187.8007,685.1891,185.74,694.82" style="stroke:#000000;stroke-width:1.0;"/><text fill="#000000" font-family="Verdana" font-size="13" lengthAdjust="spacing" textLength="54" x="240" y="636.8569">contains</text></g><!--link Interpreter to Label--><g id="link_Interpreter_Label"><path codeLine="126" d="M596.2616,601.9192 C603.8216,651.6792 608.9096,685.1779 614.4496,721.6779 " fill="none" id="Interpreter-Label" style="stroke:#000000;stroke-width:1.0;"/><line style="stroke:#000000;stroke-width:1.0;" x1="596.2616" x2="587.1508" y1="601.9192" y2="594.01"/><line style="stroke:#000000;stroke-width:1.0;" x1="596.2616" x2="602.9692" y1="601.9192" y2="594.01"/><line style="stroke:#000000;stroke-width:1.0;" x1="596.2616" x2="595.06" y1="601.9192" y2="594.01"/><polygon fill="#000000" points="615.35,727.61,617.9541,718.1117,614.5997,722.6666,610.0447,719.3122,615.35,727.61" style="stroke:#000000;stroke-width:1.0;"/><text fill="#000000" font-family="Verdana" font-size="13" lengthAdjust="spacing" textLength="54" x="603" y="636.8569">contains</text></g><!--link Instruction to Argument--><g id="link_Instruction_Argument"><path codeLine="128" d="M119,910.61 C119,943.03 119,964.84 119,997.26 " fill="none" id="Instruction-Argument" style="stroke:#000000;stroke-width:1.0;"/><line style="stroke:#000000;stroke-width:1.0;" x1="119" x2="111" y1="910.61" y2="902.61"/><line style="stroke:#000000;stroke-width:1.0;" x1="119" x2="127" y1="910.61" y2="902.61"/><line style="stroke:#000000;stroke-width:1.0;" x1="119" x2="119" y1="910.61" y2="902.61"/><polygon fill="#000000" points="119,1003.26,123,994.26,119,998.26,115,994.26,119,1003.26" style="stroke:#000000;stroke-width:1.0;"/><text fill="#000000" font-family="Verdana" font-size="13" lengthAdjust="spacing" textLength="54" x="120" y="969.7169">contains</text></g><!--SRC=[VLNDRjim3BxdAJpiig782nH3WQnDqGnf0YnTTomKYuc5of91oK6AeUy-Ih9asMvwIKX-5CM_J_vYAwYXQ2GJQbPAPaonKiOkpr0M_sRpuaTxKrPGlZup56mlOIsC_VPzTkM0ty1ubE_WS6BO8xP55RLVRTr4UO72LZLOKMvnPr6eOqJ-4W9HMPv5kYPUlREiV8t6dmWiAO_wb4u-lJL9NhCzI5BUPrbfs9PMQ4NLVIrqKseEJa0EIFyCZuRElhoKkdFriOvWjyuZAVvSr1PqA9DpynhKqLRUOdMgDyl70ZO8z4lvq2cfzqokgH789EcghVU0sqEMjw6XYA5geMxkaTL0SeWGjOFxztqZHRfkB1270I9wohlSkTmgwu88nLVAXtHbEaZO-nJP5mUqBsqtlaxESmvsH8qFJ77PDRAXTjY9cxUEmcFSD0_sqXApI38i7ECyRaoSn40dFEw51tkbh9WwvddVwjODA82KWmMVLxYoDLMcwMO8NOX2VfSGEZJTTF8V6zFoF81ikhs9BDtGLcwwEGMhLYT0-wGdRHuJE-UDqMWVtnpLawympqmA_aU9jFbv-DwUqgFrRsjGDX2juvUbM-Zln6GB8SJU4Pbue5tU2yLtfUuJ4QRZWZUCMPanQahHL8-VFrsNv-Pdxjyt5OYI4MAbE9m_VWCsSS8ahqOdBd8yl1LnJC9SVW65oLzAOT8hasB5OVcUSY1c0YV95p5fxhW0qpTYq9MhGfYx4EkZvgMYXyNbJzTyVXEtyRfe3PW96hyf5-1GQGTsaIRs66C23CAzEpZrwRgW7bZwjfcfK_un-CpFBqlcCCiFUe-qwhtNVm00]--></g></svg>